<svg width="154" height="56" viewBox="0 0 154 56" fill="none" xmlns="http://www.w3.org/2000/svg">
<path d="M52.5365 55.6702L52.2705 54.2824H52.4671C54.167 54.2824 55.3292 53.8199 55.9421 52.9005C56.4741 52.1142 56.7401 49.6799 56.7401 45.5688C56.7401 39.9891 56.6013 34.1319 56.3238 27.9971C57.1332 28.0665 58.0584 28.1011 59.0934 28.1011C60.1284 28.1011 61.0535 28.0665 61.8572 27.9971C61.6259 31.3796 61.5103 35.2536 61.5103 39.6191C61.5103 40.4979 61.5276 41.6833 61.5681 43.1635C61.6028 44.6437 61.6259 45.6787 61.6259 46.2743C61.6259 48.1419 61.4814 49.599 61.1923 50.6571C60.8627 51.9234 60.244 52.9815 59.3478 53.8141C57.9427 55.1382 56.052 55.7916 53.6756 55.7916C53.4385 55.7916 53.0511 55.7569 52.5249 55.6759" fill="white"/>
<path d="M66.3788 49.3497C66.772 47.9909 67.1363 46.4702 67.4659 44.805H67.888C68.5009 47.4936 70.0967 48.8409 72.6697 48.8409C73.7857 48.8409 74.6761 48.5286 75.3469 47.9215C76.0118 47.3028 76.3414 46.4991 76.3414 45.5046C76.3414 44.6315 76.0118 43.8683 75.3642 43.2322C74.9074 42.8159 73.9765 42.2319 72.583 41.4803C70.3569 40.2718 68.8536 39.2599 68.0672 38.4447C67.0206 37.3403 66.5003 35.9468 66.5003 34.2527C66.5003 32.2752 67.1941 30.6504 68.5876 29.3957C69.9811 28.1352 71.8603 27.5107 74.2251 27.5107C76.2199 27.5107 77.9719 28.0311 79.4868 29.0661C79.03 30.3729 78.6658 31.5871 78.4056 32.7146H78.0413C77.7117 31.7143 77.1509 30.928 76.3645 30.3613C75.5839 29.7947 74.6704 29.5113 73.6411 29.5113C72.6813 29.5113 71.9007 29.7831 71.311 30.3208C70.7154 30.8528 70.4205 31.5582 70.4205 32.4197C70.4205 33.2813 70.7327 33.9693 71.3399 34.5649C71.7967 35.0043 72.6813 35.5594 73.9938 36.2475C74.9305 36.7274 75.8615 37.2073 76.7924 37.6814C77.7175 38.1498 78.3825 38.595 78.7756 39.0229C79.9378 40.2313 80.5103 41.7231 80.5103 43.4809C80.5103 45.7012 79.7644 47.4879 78.2726 48.8582C76.7808 50.2228 74.7744 50.9051 72.2592 50.9051C69.744 50.9051 67.7087 50.3963 66.373 49.3613" fill="white"/>
<path d="M88.6623 50.4721C86.7658 43.2502 84.4877 35.7566 81.8105 27.9971C82.62 28.0665 83.551 28.1011 84.6091 28.1011C85.6672 28.1011 86.5576 28.0665 87.3787 27.9971C88.6508 33.5074 90.1252 38.9715 91.7962 44.4124C93.8489 38.5378 95.7165 33.068 97.3933 27.9971C97.8963 28.0665 98.4456 28.1011 99.0412 28.1011C99.6367 28.1011 100.215 28.0665 100.718 27.9971C102.279 33.1952 104.043 38.5841 106.02 44.1869C107.865 38.9426 109.472 33.5537 110.831 27.9971C111.27 28.0665 111.773 28.1011 112.346 28.1011C112.918 28.1011 113.387 28.0665 113.832 27.9971C111.502 34.6233 109.015 42.1112 106.384 50.4721C105.772 50.368 105.199 50.3044 104.673 50.3044C104.193 50.3044 103.621 50.3622 102.961 50.4721C101.447 45.3954 99.6772 40.0816 97.6592 34.5308C95.7049 39.5612 93.8257 44.8692 92.0217 50.4721C91.4088 50.368 90.848 50.3044 90.3391 50.3044C89.8303 50.3044 89.2752 50.3622 88.6623 50.4721Z" fill="white"/>
<path d="M119.186 49.4599C119.551 48.1994 119.886 46.7886 120.187 45.2505H120.58C121.147 47.7426 122.627 48.9915 125.015 48.9915C126.056 48.9915 126.882 48.7024 127.49 48.1358C128.114 47.5634 128.42 46.8233 128.42 45.8981C128.42 45.0886 128.12 44.3774 127.513 43.7934C127.091 43.406 126.223 42.8625 124.94 42.1687C122.87 41.047 121.476 40.1103 120.748 39.3528C119.776 38.3294 119.291 37.0342 119.291 35.4672C119.291 33.6285 119.932 32.1252 121.233 30.963C122.523 29.795 124.269 29.2168 126.46 29.2168C128.311 29.2168 129.935 29.6967 131.34 30.6565C130.913 31.865 130.583 32.9983 130.334 34.0391H129.999C129.693 33.1081 129.178 32.3796 128.444 31.8534C127.715 31.3273 126.871 31.0613 125.917 31.0613C125.021 31.0613 124.298 31.3099 123.754 31.8072C123.205 32.3102 122.933 32.9578 122.933 33.7557C122.933 34.5537 123.217 35.1897 123.783 35.7448C124.205 36.1495 125.026 36.6699 126.241 37.3059C127.114 37.7512 127.981 38.1964 128.837 38.6358C129.698 39.0753 130.311 39.4858 130.681 39.879C131.757 40.9949 132.289 42.3826 132.289 44.0074C132.289 46.0658 131.595 47.7253 130.213 48.9915C128.831 50.2578 126.975 50.8881 124.639 50.8881C122.303 50.8881 120.424 50.4139 119.181 49.4541" fill="white"/>
<path d="M133.786 50.5005C136.741 43.9725 139.574 36.8779 142.309 29.2051C142.737 29.2802 143.142 29.3207 143.529 29.3207C143.939 29.3207 144.298 29.2802 144.628 29.2051C147.073 35.9759 149.901 43.0705 153.116 50.5005C152.364 50.4138 151.491 50.3733 150.491 50.3733C149.49 50.3733 148.658 50.4138 147.86 50.5005C147.391 49.0261 146.726 46.9792 145.848 44.3426C145.05 44.3021 143.864 44.279 142.274 44.279C140.684 44.279 139.505 44.3021 138.707 44.3426C137.747 47.1642 137.024 49.2111 136.538 50.5005C136.151 50.4369 135.712 50.408 135.226 50.408C134.798 50.408 134.318 50.4369 133.792 50.5005M139.562 42.3189C140.782 42.3767 141.69 42.3998 142.28 42.3998C142.87 42.3998 143.778 42.3825 144.998 42.3362C144.2 39.9135 143.315 37.5833 142.338 35.3457C141.343 37.5024 140.412 39.8268 139.557 42.3189" fill="white"/>
<path fill-rule="evenodd" clip-rule="evenodd" d="M20.7461 2.35938C21.2838 5.26198 24.4351 7.31463 25.1694 10.3676C25.5799 12.0559 23.7007 13.9582 22.8161 15.9242C19.3699 23.5623 19.7458 31.4086 24.3657 40.1685C12.8073 28.3672 14.2528 13.6865 20.7461 2.35938Z" fill="#EF8213"/>
<path fill-rule="evenodd" clip-rule="evenodd" d="M37.4329 10.2343C29.0547 16.265 26.0191 22.8566 25.3368 29.6968C23.8335 19.8557 27.933 8.91598 41.4746 0C40.1852 2.88526 41.544 5.98446 40.376 8.26839C39.7978 9.01428 38.3465 9.56936 37.4272 10.2343" fill="#EF8213"/>
<path fill-rule="evenodd" clip-rule="evenodd" d="M30.8701 24.175C32.2809 17.011 46.2447 8.26843 53.7094 8.48237C52.8652 9.27451 52.1887 10.0493 51.6278 10.9513C50.9687 12.0152 50.9166 13.0618 49.7718 13.7441C48.1644 14.7039 46.158 14.2876 43.4982 15.1144C38.5892 16.6409 34.1659 19.8904 30.8701 24.1807" fill="#EF8213"/>
<path fill-rule="evenodd" clip-rule="evenodd" d="M52.4843 21.2438C49.4603 18.8038 45.6441 17.9423 41.082 18.3297C48.5756 15.7104 55.6066 17.5607 59.868 22.2846C56.4797 21.6833 56.2138 23.2444 54.323 22.8628C53.6639 22.5622 53.2476 21.77 52.4843 21.2381" fill="#EF8213"/>
<path fill-rule="evenodd" clip-rule="evenodd" d="M0 25.6377C3.83353 28.1356 7.11775 28.3784 10.1707 28.9161C11.7839 29.2052 12.8478 29.477 13.5243 30.46C14.6345 31.9575 15.4729 34.3744 17.0051 37.4794C22.0009 47.3668 33.8137 55.3345 43.1113 55.6814C26.6959 58.0926 5.25592 46.6903 0 25.6377Z" fill="#EF8213"/>
</svg>
